<svg width="1440" height="282" viewBox="0 0 1440 282" fill="none" xmlns="http://www.w3.org/2000/svg">
<rect width="1440" height="282" fill="#F5F5F5"/>
<g clip-path="url(#clip0_0_1)">
<rect width="1440" height="1620" transform="translate(0 -1259)" fill="white"/>
<rect x="-9" width="1450" height="282" fill="#013F7D"/>
<path fill-rule="evenodd" clip-rule="evenodd" d="M1267.37 170.774C1267.75 170.554 1268.39 170.403 1268.82 170.448C1269.31 170.488 1272.01 172.524 1276.86 176.515C1280.87 179.797 1284.23 182.469 1284.37 182.391C1284.47 182.328 1285.17 181.017 1285.92 179.492C1286.79 177.79 1287.62 176.514 1288.05 176.262C1288.49 176.01 1289.25 175.937 1290.97 176.397L1295.29 183.887C1297.67 188 1299.65 191.362 1299.68 191.346C1299.73 191.314 1301.16 189.509 1302.9 187.303C1304.61 185.114 1306.31 183.151 1306.67 182.946C1306.99 182.757 1307.74 182.727 1308.34 182.887C1308.94 183.048 1309.57 183.447 1309.76 183.774C1309.97 184.128 1310.96 188.17 1312.01 192.757C1313.06 197.345 1314.74 204.77 1315.73 209.249C1316.73 213.684 1317.67 217.574 1317.81 217.819C1318 218.146 1318.51 216.762 1319.27 213.996C1319.9 211.632 1320.85 207.558 1321.39 204.96C1321.92 202.363 1322.65 198.344 1322.99 196.041C1323.33 193.737 1323.75 191.499 1323.91 191.038C1324.06 190.592 1324.5 190.044 1324.88 189.823C1325.27 189.603 1325.96 189.49 1326.47 189.558C1327.26 189.652 1327.94 190.273 1330.79 193.568C1332.68 195.709 1334.31 197.527 1334.46 197.589C1334.59 197.623 1339.06 192.787 1344.39 186.799C1349.72 180.811 1354.35 175.74 1354.7 175.535C1355.03 175.346 1355.78 175.315 1356.38 175.476C1356.98 175.637 1357.63 176.063 1357.85 176.444C1358.07 176.826 1358.4 183.824 1358.56 192.018C1358.74 200.195 1359 206.917 1359.11 206.924C1359.21 206.905 1362 206.961 1365.33 207C1368.64 207.011 1371.73 207.191 1372.19 207.361C1372.63 207.503 1373.18 207.949 1373.4 208.33C1373.62 208.712 1373.73 209.41 1373.65 209.894C1373.56 210.421 1372.52 211.964 1371.03 213.731C1369.67 215.321 1367.22 218.443 1365.56 220.601C1363.9 222.759 1361.52 226.13 1360.26 228.095C1359 230.06 1357.53 232.545 1357 233.648C1356.46 234.723 1356.08 235.704 1356.19 235.825C1356.25 235.934 1357.43 236.088 1358.84 236.144C1360.23 236.215 1362.3 236.217 1363.47 236.16C1364.62 236.077 1366.69 235.825 1368.03 235.561C1369.38 235.324 1371.64 234.709 1373.05 234.187C1374.45 233.665 1376.34 232.789 1377.3 232.239C1378.74 231.404 1379.16 231.309 1380.06 231.55C1380.66 231.711 1381.31 232.137 1381.53 232.519C1381.75 232.9 1381.97 233.465 1382 233.773C1382.02 234.124 1381.41 235.641 1380.61 237.225C1379.81 238.782 1378.32 241.423 1377.26 243.051C1376.2 244.679 1374.36 247.271 1373.14 248.811C1371.92 250.35 1369.79 252.705 1368.39 254.101C1366.96 255.47 1364.79 257.377 1363.57 258.339C1362.32 259.316 1359.57 261.047 1353.43 264.377L1354.74 266.638C1355.9 268.654 1356.02 268.985 1355.74 269.946C1355.52 270.876 1355.24 271.146 1353.68 272.043C1352.7 272.61 1351.26 273.261 1350.46 273.507C1349.63 273.768 1347.56 274.09 1345.85 274.208C1344.15 274.352 1341.32 274.284 1339.61 274.105C1337.9 273.899 1334.7 273.274 1328.57 271.657L1344.31 298.895L1344.02 299.97C1343.87 300.641 1343.46 301.201 1342.92 301.516C1342.4 301.815 1341.72 301.885 1339.95 301.413L1324.21 274.176L1323.14 278.102C1322.54 280.267 1321.48 283.347 1320.81 284.938C1320.13 286.529 1318.77 289.022 1317.8 290.419C1316.84 291.844 1315.53 293.474 1314.91 294.046C1314.27 294.635 1312.99 295.558 1312.01 296.125C1310.48 297.006 1310.11 297.113 1309.16 296.86C1308.18 296.596 1307.96 296.355 1305.49 292.078L1301.66 294.438C1299.57 295.72 1296.73 297.217 1295.35 297.793C1293.96 298.342 1291.39 299.244 1289.58 299.748C1287.78 300.28 1284.59 300.994 1282.48 301.304C1280.39 301.642 1277.06 301.971 1275.12 302.074C1273.18 302.177 1270.15 302.148 1268.39 302.071C1266.63 301.966 1265.01 301.74 1264.74 301.531C1264.46 301.364 1264.08 300.894 1263.86 300.512C1263.64 300.131 1263.58 299.402 1263.73 298.843C1263.92 297.972 1264.31 297.638 1266.72 296.027C1268.25 295.032 1270.27 293.431 1271.23 292.513C1272.17 291.568 1273.66 289.871 1274.51 288.763C1275.38 287.682 1276.75 285.541 1277.59 284.038C1278.43 282.536 1279.19 281.011 1279.28 280.667C1279.43 280.108 1279.34 280.015 1278.47 279.898C1277.92 279.819 1275.72 279.783 1273.5 279.789C1271.32 279.78 1266.83 280.122 1263.55 280.489C1260.28 280.856 1255.66 281.487 1253.31 281.939C1250.65 282.424 1248.71 282.597 1248.19 282.389C1247.73 282.22 1247.18 281.774 1246.96 281.392C1246.74 281.011 1246.63 280.313 1246.73 279.856C1246.81 279.372 1248.2 276.61 1249.84 273.735C1251.47 270.831 1252.82 268.382 1252.88 268.308C1252.93 268.206 1247.23 264.632 1240.24 260.389C1233.22 256.162 1227.32 252.375 1227.1 251.993C1226.88 251.612 1226.84 250.84 1227 250.238C1227.13 249.652 1227.53 249.022 1227.88 248.817C1228.24 248.613 1234.94 247.136 1242.79 245.507C1250.64 243.877 1257.07 242.418 1257.1 242.289C1257.12 242.132 1256.36 239.811 1255.45 237.103C1254.02 232.99 1253.82 232.085 1254.13 231.362C1254.33 230.885 1254.77 230.336 1255.16 230.116C1255.54 229.896 1256.23 229.783 1256.69 229.882C1257.18 229.966 1259.32 230.724 1261.49 231.58C1263.65 232.436 1267.5 233.81 1270.02 234.645C1272.53 235.479 1276.54 236.689 1278.9 237.322C1281.68 238.042 1283.13 238.292 1282.96 237.993C1282.8 237.72 1279.9 234.964 1276.54 231.855C1273.17 228.788 1267.58 223.63 1264.13 220.427C1260.68 217.225 1257.67 214.348 1257.48 214.021C1257.28 213.667 1257.25 212.922 1257.41 212.32C1257.54 211.734 1257.94 211.104 1258.29 210.899C1258.65 210.695 1261.2 210.202 1263.95 209.811C1266.73 209.403 1269.01 209.068 1269.06 209.037C1269.09 209.021 1267.16 205.628 1260.47 193.982L1260.75 192.95C1260.89 192.321 1261.33 191.703 1261.77 191.451C1262.23 191.183 1263.73 191.078 1265.66 191.202C1267.36 191.311 1268.84 191.362 1268.98 191.283C1269.08 191.22 1268.45 186.974 1267.6 181.867C1266.57 175.671 1266.15 172.314 1266.37 171.864C1266.54 171.473 1266.99 170.995 1267.37 170.774V170.774ZM1274.43 195.253C1274.26 195.644 1273.81 196.122 1273.43 196.342C1273.04 196.563 1271.61 196.663 1270.21 196.565L1267.65 196.409L1275.84 210.573C1275.41 212.233 1275.01 212.863 1274.66 213.068C1274.31 213.272 1272.16 213.712 1269.84 214.035C1267.54 214.386 1265.64 214.684 1265.62 214.77C1265.58 214.829 1271.57 220.415 1278.91 227.145C1286.26 233.903 1292.54 239.796 1292.85 240.271C1293.31 240.877 1293.39 241.337 1293.18 242.154C1293.03 242.783 1292.59 243.401 1292.15 243.653C1291.74 243.889 1290.4 244.083 1289.19 244.057C1287.99 244.059 1285.75 243.828 1284.2 243.598C1282.68 243.351 1279.79 242.764 1277.85 242.29C1275.9 241.816 1271.75 240.544 1268.6 239.494C1265.48 238.428 1262.36 237.362 1261.71 237.12L1260.51 236.685C1262.83 243.338 1263.08 244.464 1262.9 245.222C1262.77 245.738 1262.38 246.325 1262.02 246.53C1261.67 246.734 1255.84 248.031 1249.06 249.441C1242.29 250.851 1236.75 252.087 1236.77 252.185C1236.76 252.298 1241.61 255.345 1247.47 258.938C1253.36 262.542 1258.29 265.726 1258.47 266.026C1258.64 266.325 1258.8 266.851 1258.82 267.202C1258.85 267.51 1257.81 269.673 1256.5 271.993C1255.2 274.271 1254.19 276.234 1254.27 276.37C1254.33 276.479 1256 276.35 1257.99 276.075C1260 275.785 1263.49 275.405 1265.76 275.183C1268.04 274.989 1271.6 274.788 1273.68 274.747C1275.78 274.733 1278.78 274.89 1280.38 275.089C1281.98 275.288 1283.6 275.628 1283.99 275.802C1284.35 275.991 1284.88 276.523 1285.13 276.959C1285.49 277.585 1285.45 278.265 1284.91 279.918C1284.58 281.094 1283.67 283.291 1282.92 284.774C1282.2 286.283 1280.74 288.725 1279.72 290.224C1278.69 291.724 1276.99 293.8 1275.94 294.878C1274.92 295.941 1274.1 296.85 1274.14 296.932C1274.19 297.013 1275.42 296.996 1276.9 296.864C1278.4 296.759 1280.59 296.514 1281.79 296.329C1282.99 296.144 1285.16 295.688 1286.66 295.33C1288.15 294.944 1290.64 294.16 1292.18 293.559C1293.74 292.986 1296.3 291.76 1297.88 290.847C1299.44 289.907 1301.61 288.437 1302.68 287.527C1303.75 286.616 1304.84 285.733 1305.11 285.576C1305.36 285.434 1306.05 285.435 1306.65 285.596C1307.64 285.86 1307.84 286.074 1309.22 288.471L1310.72 291.058C1311.75 290.136 1312.84 288.703 1313.8 287.278C1314.91 285.618 1316.07 283.349 1316.92 281.043C1317.66 279.053 1318.66 275.498 1319.11 273.201C1319.56 270.905 1319.87 268.913 1319.8 268.804C1319.71 268.711 1317.93 268.396 1315.84 268.113L1312.05 267.581C1304.5 273.76 1302.04 275.726 1301.71 275.915C1301.36 276.12 1300.61 276.151 1300.01 275.99C1299.32 275.806 1298.76 275.403 1298.46 274.885C1298.18 274.395 1298.08 273.654 1298.26 273.08C1298.43 272.365 1299 271.667 1300.35 270.599C1301.35 269.763 1302.89 268.515 1303.76 267.828L1305.29 266.58L1279.55 262.595C1270.2 267.967 1270.14 267.998 1269.07 267.711C1268.38 267.527 1267.82 267.124 1267.52 266.606C1267.24 266.116 1267.14 265.375 1267.34 264.715C1267.56 263.785 1267.81 263.53 1269.58 262.507L1271.59 261.385C1261.42 259.885 1258.19 259.319 1257.86 259.184C1257.52 259.049 1257.07 258.583 1256.84 258.175C1256.58 257.739 1256.52 256.939 1256.68 256.338C1256.83 255.709 1257.27 255.09 1257.71 254.838C1258.29 254.465 1261.88 254.896 1274.38 256.791C1283.13 258.095 1290.34 259.125 1290.39 259.024C1290.44 258.922 1289.38 257.464 1288.01 255.785C1286.15 253.445 1285.56 252.55 1285.54 251.945C1285.49 251.497 1285.72 250.821 1286.08 250.433C1286.39 250.033 1287.02 249.601 1287.5 249.431C1287.95 249.276 1288.63 249.32 1289.06 249.548C1289.46 249.749 1291.73 252.29 1294.12 255.162C1297.84 259.659 1298.56 260.404 1299.36 260.525C1299.84 260.609 1304.2 261.29 1309.02 262.028L1317.78 263.359L1292.18 218.747C1279.29 215.297 1278.37 214.958 1277.91 214.168C1277.58 213.596 1277.49 212.925 1277.7 212.222C1277.86 211.507 1278.26 210.99 1278.86 210.644C1279.63 210.231 1280.4 210.297 1284.18 211.309L1288.56 212.482C1282.36 201.75 1282.35 201.723 1282.64 200.648C1282.79 199.977 1283.19 199.417 1283.74 199.102C1284.26 198.803 1284.94 198.733 1285.63 198.917L1286.71 199.205L1300.48 223.038C1302.68 214.899 1302.99 214.176 1303.73 213.708C1304.31 213.372 1304.96 213.3 1305.68 213.492C1306.41 213.687 1306.93 214.079 1307.27 214.678C1307.71 215.441 1307.55 216.409 1305.94 222.426L1304.1 229.302L1322.41 260.683C1327.4 247.88 1328.99 243.768 1329.18 243.291C1329.45 242.556 1329.16 241.559 1327.13 236.086C1325.83 232.584 1324.76 229.351 1324.79 228.898C1324.81 228.418 1325.16 227.777 1325.55 227.443C1325.97 227.094 1326.75 226.821 1327.34 226.771C1327.9 226.737 1328.63 226.933 1328.92 227.239C1329.19 227.519 1330.05 229.314 1330.77 231.257C1331.52 233.185 1332.22 234.778 1332.34 234.785C1332.45 234.792 1335.16 228.033 1338.39 219.803C1342.96 208.154 1344.42 204.697 1345.03 204.378C1345.44 204.142 1346.24 204.08 1346.84 204.241C1347.44 204.402 1348.1 204.855 1348.36 205.291C1348.59 205.699 1348.77 206.323 1348.72 206.678C1348.67 207.033 1347.55 210.117 1346.2 213.511L1343.77 219.676C1347.49 217.493 1347.83 217.401 1348.78 217.654C1349.47 217.838 1350.03 218.241 1350.32 218.759C1350.61 219.249 1350.71 219.99 1350.51 220.65C1350.25 221.709 1350.19 221.74 1345.54 224.432L1340.84 227.182L1331.44 251.47C1334.32 250.352 1336.16 249.649 1337.39 249.194C1338.99 248.562 1339.88 248.409 1340.61 248.605C1341.17 248.754 1341.76 249.212 1342.05 249.702C1342.33 250.192 1342.43 250.933 1342.23 251.594C1342.1 252.18 1341.7 252.81 1341.34 253.014C1340.99 253.219 1338.06 254.369 1334.83 255.578L1328.93 257.823L1326.03 265.313C1329.02 266.387 1330.9 267.007 1332.11 267.399C1333.34 267.775 1336.06 268.386 1338.17 268.766C1340.61 269.168 1343.1 269.328 1345.12 269.178C1346.86 269.044 1348.63 268.825 1349.11 268.655L1349.94 268.394C1347.07 263.436 1346.97 263.132 1347.24 262.144C1347.37 261.558 1347.69 260.975 1347.93 260.833C1348.15 260.708 1349.6 260.127 1351.13 259.569C1353.19 258.81 1354.79 257.995 1357.62 256.218C1359.87 254.771 1362.16 253.082 1363.46 251.862C1364.65 250.775 1366.49 248.874 1367.54 247.613C1368.64 246.363 1370.39 244.114 1371.45 242.556C1372.53 241.025 1373.36 239.706 1373.29 239.64C1373.24 239.559 1372.05 239.814 1370.62 240.168C1369.16 240.538 1366.51 240.98 1364.7 241.118C1362.89 241.255 1360.04 241.3 1358.37 241.176C1356.72 241.078 1354.36 240.77 1353.17 240.475C1351.56 240.135 1350.86 239.811 1350.55 239.266C1350.3 238.831 1350.09 238.223 1350.08 237.899C1350.04 237.564 1350.45 236.2 1350.96 234.886C1351.47 233.573 1352.43 231.527 1353.11 230.303C1353.75 229.094 1355.47 226.284 1356.94 224.053C1358.4 221.865 1360.92 218.302 1362.57 216.187C1364.18 214.06 1365.46 212.263 1365.4 212.154C1365.32 212.018 1363.12 211.911 1360.49 211.901C1357.83 211.878 1355.44 211.699 1355.19 211.517C1354.89 211.323 1354.52 210.923 1354.34 210.623C1354.17 210.324 1353.9 204.448 1353.69 197.555C1353.53 190.672 1353.29 184.965 1353.21 184.899C1353.11 184.849 1349.28 189.027 1344.67 194.196C1340.06 199.365 1336.03 203.766 1335.7 203.955C1335.35 204.16 1334.65 204.202 1334.1 204.08C1333.36 203.857 1332.54 203.131 1330.52 200.772L1327.9 197.745C1327.57 199.682 1326.89 202.979 1326.25 206.33C1325.59 209.654 1324.57 213.986 1323.98 215.924C1323.39 217.862 1322.51 220.551 1321.99 221.908C1321.46 223.264 1320.57 225.235 1319.97 226.272C1319.38 227.336 1318.57 228.386 1318.16 228.622C1317.73 228.874 1316.93 228.936 1316.33 228.775C1315.51 228.557 1315.15 228.254 1314.83 227.569C1314.6 227.047 1312.63 218.667 1310.45 208.919C1308.27 199.171 1306.43 191.22 1306.36 191.224C1306.28 191.201 1305.07 192.697 1303.62 194.519C1302.18 196.367 1300.73 198.005 1300.4 198.194C1300.05 198.399 1299.3 198.43 1298.7 198.269L1297.63 197.981L1289.44 183.818C1287.68 187.377 1286.88 188.567 1286.5 188.787C1286.12 189.008 1285.48 189.159 1285.05 189.114C1284.55 189.088 1282.38 187.439 1278.52 184.167C1275.35 181.498 1272.63 179.365 1272.49 179.443C1272.35 179.522 1272.81 182.961 1273.49 187.079C1274.32 191.975 1274.64 194.803 1274.43 195.253Z" fill="white" fill-opacity="0.33"/>
<path fill-rule="evenodd" clip-rule="evenodd" d="M716.5 65C716.94 65 717.57 65.1887 717.916 65.4404C718.325 65.7235 719.646 68.8379 721.848 74.7206C723.673 79.5652 725.245 83.5604 725.403 83.5604C725.529 83.5604 726.787 82.774 728.203 81.8302C729.807 80.7921 731.16 80.1 731.663 80.1C732.166 80.1 732.858 80.4146 734.117 81.6729V90.324C734.117 95.0742 734.148 98.975 734.18 98.975C734.243 98.975 736.382 98.1256 738.993 97.0875C741.572 96.0494 744.026 95.2 744.435 95.2C744.812 95.2 745.473 95.546 745.914 95.9865C746.354 96.4269 746.7 97.0875 746.7 97.465C746.7 97.874 745.536 101.869 744.152 106.368C742.768 110.866 740.503 118.133 739.119 122.506C737.766 126.847 736.633 130.685 736.633 130.968C736.633 131.346 737.766 130.402 739.811 128.389C741.541 126.658 744.404 123.607 746.165 121.625C747.927 119.643 750.569 116.529 752.016 114.704C753.464 112.88 754.942 111.149 755.32 110.835C755.666 110.52 756.326 110.269 756.767 110.269C757.207 110.269 757.868 110.52 758.277 110.835C758.906 111.307 759.189 112.188 760.007 116.466C760.573 119.266 761.076 121.656 761.171 121.782C761.265 121.877 767.557 119.926 775.17 117.41C782.783 114.893 789.326 112.817 789.735 112.817C790.112 112.817 790.773 113.163 791.214 113.603C791.654 114.044 792 114.736 792 115.176C792 115.616 788.791 121.845 784.827 129.018C780.895 136.19 777.749 142.136 777.844 142.199C777.938 142.23 780.329 143.677 783.192 145.376C786.054 147.043 788.634 148.742 788.949 149.12C789.263 149.466 789.515 150.126 789.515 150.567C789.515 151.007 789.263 151.668 788.949 152.045C788.602 152.454 786.935 153.272 784.765 154.059C782.783 154.751 779.102 156.229 776.585 157.267C774.069 158.305 770.325 160.036 768.249 161.105C766.173 162.175 763.656 163.59 762.649 164.283C761.643 164.943 760.825 165.604 760.856 165.761C760.856 165.887 761.8 166.61 762.995 167.365C764.159 168.12 765.952 169.159 766.991 169.693C768.029 170.197 769.948 171.015 771.238 171.455C772.527 171.927 774.792 172.525 776.271 172.776C777.749 173.028 779.826 173.217 780.927 173.217C782.594 173.217 783.003 173.342 783.664 174.003C784.104 174.444 784.45 175.136 784.45 175.576C784.45 176.016 784.356 176.614 784.23 176.897C784.072 177.212 782.783 178.219 781.304 179.194C779.826 180.137 777.215 181.679 775.484 182.56C773.754 183.441 770.86 184.762 769.035 185.485C767.211 186.209 764.191 187.184 762.272 187.688C760.353 188.159 757.522 188.726 755.98 188.946C754.407 189.166 751.167 189.292 744.183 189.103V191.714C744.183 194.042 744.12 194.388 743.397 195.08C742.736 195.772 742.359 195.867 740.566 195.867C739.433 195.867 737.86 195.709 737.042 195.521C736.193 195.332 734.243 194.577 732.701 193.822C731.16 193.098 728.737 191.62 727.353 190.613C725.969 189.575 723.515 187.436 719.017 182.969V214.427L718.23 215.214C717.758 215.717 717.129 216 716.5 216C715.902 216 715.273 215.717 713.983 214.427V182.969L711.089 185.831C709.485 187.404 707.031 189.544 705.647 190.582C704.263 191.62 701.84 193.098 700.299 193.822C698.757 194.577 696.807 195.332 695.989 195.521C695.14 195.709 693.567 195.867 692.434 195.867C690.673 195.867 690.295 195.772 689.603 195.08C688.88 194.357 688.817 194.042 688.817 189.103L684.318 189.229C681.864 189.292 678.656 189.166 677.177 188.977C675.699 188.757 673.025 188.254 671.2 187.782C669.375 187.341 666.261 186.366 664.279 185.58C662.297 184.825 659.246 183.441 657.516 182.56C655.785 181.679 653.174 180.137 651.696 179.194C650.217 178.219 648.927 177.212 648.802 176.897C648.644 176.614 648.55 176.016 648.55 175.576C648.55 175.136 648.865 174.475 649.274 174.066C649.871 173.405 650.375 173.311 653.269 173.122C655.093 173.028 657.641 172.65 658.931 172.336C660.221 171.99 662.36 171.266 663.65 170.731C664.94 170.228 667.205 169.064 668.683 168.183C670.162 167.302 671.577 166.359 671.829 166.107C672.238 165.698 672.207 165.572 671.515 165.037C671.074 164.691 669.187 163.559 667.268 162.458C665.38 161.357 661.322 159.406 658.302 158.085C655.282 156.764 650.972 155.002 648.707 154.216C646.159 153.304 644.398 152.486 644.051 152.045C643.737 151.668 643.485 151.007 643.485 150.567C643.485 150.126 643.737 149.466 644.051 149.12C644.366 148.742 646.946 147.043 649.808 145.376C652.671 143.677 655.062 142.23 655.156 142.199C655.251 142.136 652.105 136.19 648.172 129.018C644.209 121.845 641 115.616 641 115.176C641 114.736 641.346 114.044 641.786 113.603C642.195 113.163 642.856 112.817 643.265 112.817C643.674 112.817 650.217 114.893 657.83 117.41C665.443 119.926 671.735 121.877 671.829 121.782C671.924 121.656 672.427 119.266 672.993 116.466C673.811 112.188 674.094 111.307 674.723 110.835C675.132 110.52 675.793 110.269 676.233 110.269C676.674 110.269 677.334 110.52 677.68 110.835C678.058 111.149 679.536 112.88 680.984 114.704C682.431 116.529 685.073 119.643 686.835 121.625C688.596 123.607 691.459 126.658 693.189 128.389C695.234 130.402 696.367 131.346 696.367 131C696.367 130.685 695.234 126.847 693.881 122.474C692.497 118.133 690.232 110.866 688.848 106.368C687.464 101.869 686.3 97.874 686.3 97.4965C686.3 97.0875 686.646 96.4269 687.086 95.9865C687.495 95.546 688.156 95.2 688.565 95.2C688.974 95.2 691.428 96.0494 694.007 97.0875C696.618 98.1256 698.757 98.975 698.82 98.975C698.852 98.975 698.883 95.0742 698.915 81.6415L699.67 80.8865C700.11 80.4146 700.802 80.1 701.306 80.1C701.84 80.1 703.193 80.7606 704.798 81.8302C706.213 82.774 707.471 83.5604 707.629 83.5604C707.755 83.5604 709.327 79.5652 711.152 74.7206C713.354 68.8379 714.675 65.7235 715.084 65.4404C715.43 65.1887 716.06 65 716.5 65V65ZM710.366 89.7262C710.02 89.9779 709.39 90.1667 708.95 90.1667C708.51 90.1667 707.22 89.5375 706.056 88.751L703.917 87.3354V103.694C702.721 104.921 702.061 105.267 701.652 105.267C701.243 105.267 699.166 104.575 696.996 103.694C694.825 102.844 693.032 102.152 692.969 102.215C692.906 102.247 695.297 110.08 698.286 119.58C701.274 129.112 703.759 137.354 703.791 137.92C703.885 138.675 703.728 139.116 703.13 139.714C702.69 140.185 701.998 140.5 701.494 140.5C701.022 140.5 699.764 139.997 698.726 139.368C697.688 138.77 695.863 137.449 694.636 136.473C693.441 135.498 691.239 133.548 689.792 132.164C688.345 130.779 685.388 127.602 683.186 125.117C681.015 122.632 678.844 120.146 678.404 119.612L677.586 118.636C676.265 125.557 675.919 126.658 675.384 127.225C675.006 127.602 674.377 127.917 673.968 127.917C673.559 127.917 667.865 126.124 661.291 123.953C654.716 121.782 649.305 120.084 649.274 120.178C649.211 120.272 651.885 125.337 655.156 131.377C658.459 137.449 661.133 142.671 661.133 143.017C661.133 143.363 661.007 143.897 660.85 144.212C660.724 144.495 658.743 145.848 656.446 147.201C654.181 148.522 652.325 149.717 652.325 149.875C652.325 150 653.835 150.724 655.691 151.479C657.579 152.234 660.787 153.65 662.864 154.593C664.94 155.569 668.117 157.173 669.942 158.18C671.766 159.218 674.283 160.854 675.573 161.829C676.862 162.804 678.089 163.905 678.341 164.251C678.561 164.597 678.75 165.321 678.75 165.824C678.75 166.548 678.372 167.114 677.083 168.278C676.202 169.127 674.314 170.574 672.93 171.486C671.546 172.43 669.061 173.814 667.425 174.601C665.789 175.387 663.272 176.331 661.825 176.74C660.41 177.149 659.246 177.526 659.246 177.621C659.246 177.715 660.315 178.313 661.668 178.942C663.021 179.603 665.034 180.484 666.167 180.924C667.299 181.364 669.407 182.056 670.885 182.497C672.364 182.906 674.912 183.472 676.548 183.724C678.184 184.007 681.015 184.227 682.84 184.227C684.664 184.196 687.275 184.007 688.659 183.755C690.044 183.504 691.428 183.283 691.742 183.283C692.025 183.283 692.623 183.629 693.064 184.07C693.787 184.793 693.85 185.076 693.85 187.845V190.833C695.203 190.55 696.87 189.858 698.411 189.103C700.205 188.222 702.344 186.838 704.231 185.265C705.867 183.912 708.51 181.333 710.051 179.571C711.592 177.81 712.851 176.237 712.851 176.111C712.819 175.985 711.435 174.821 709.768 173.531L706.748 171.172C697.122 172.745 694.007 173.217 693.63 173.217C693.221 173.217 692.56 172.871 692.12 172.43C691.616 171.927 691.333 171.298 691.333 170.7C691.333 170.134 691.616 169.442 692.057 169.033C692.56 168.498 693.41 168.183 695.108 167.932C696.398 167.711 698.349 167.397 699.45 167.24L701.4 166.925L681.109 150.598C670.319 150.567 670.256 150.567 669.47 149.78C668.966 149.277 668.683 148.648 668.683 148.05C668.683 147.484 668.966 146.792 669.47 146.32C670.13 145.628 670.476 145.533 672.521 145.533L674.818 145.565C666.764 139.179 664.248 137.071 664.027 136.788C663.807 136.505 663.65 135.876 663.65 135.404C663.65 134.9 663.996 134.177 664.436 133.736C664.877 133.265 665.569 132.95 666.072 132.95C666.764 132.919 669.659 135.089 679.536 142.985C686.457 148.49 692.183 152.989 692.277 152.926C692.371 152.863 692.183 151.07 691.837 148.931C691.396 145.974 691.333 144.904 691.616 144.369C691.805 143.96 692.34 143.489 692.843 143.331C693.315 143.143 694.07 143.08 694.574 143.174C695.045 143.268 695.612 143.646 695.863 144.055C696.115 144.432 696.807 147.767 697.436 151.447C698.411 157.204 698.663 158.211 699.292 158.714C699.67 159.029 703.099 161.797 706.905 164.849L713.826 170.385L713.983 118.951C704.546 109.514 703.917 108.759 703.917 107.846C703.917 107.186 704.168 106.556 704.703 106.053C705.206 105.518 705.804 105.267 706.496 105.267C707.377 105.298 708.006 105.739 710.775 108.507L713.983 111.716C713.983 99.321 713.983 99.2896 714.77 98.5031C715.242 97.9998 715.871 97.7167 716.5 97.7167C717.098 97.7167 717.727 97.9998 718.23 98.5031L719.017 99.2896V126.816C724.994 120.87 725.623 120.398 726.504 120.367C727.175 120.367 727.773 120.629 728.297 121.153C728.832 121.688 729.083 122.286 729.083 122.978C729.083 123.859 728.454 124.614 724.05 129.018L719.017 134.051L719.174 170.385C729.901 161.797 733.33 159.029 733.739 158.714C734.337 158.211 734.589 157.204 735.564 151.447C736.193 147.767 736.885 144.432 737.137 144.055C737.388 143.646 738.018 143.268 738.521 143.174C739.056 143.08 739.874 143.237 740.408 143.489C740.912 143.74 741.446 144.275 741.541 144.684C741.635 145.061 741.478 147.043 741.132 149.088C740.817 151.133 740.629 152.863 740.723 152.926C740.817 152.989 746.543 148.49 753.464 142.985C763.247 135.184 766.236 132.919 766.928 132.95C767.4 132.95 768.123 133.296 768.564 133.736C769.004 134.177 769.35 134.9 769.35 135.404C769.35 135.876 769.193 136.505 768.972 136.788C768.752 137.071 766.236 139.179 763.373 141.444L758.182 145.565C762.492 145.533 762.838 145.628 763.53 146.32C764.034 146.823 764.317 147.452 764.317 148.05C764.317 148.616 764.034 149.308 763.53 149.78C762.775 150.567 762.712 150.567 757.333 150.567L751.891 150.598L731.6 166.925C734.651 167.397 736.602 167.711 737.892 167.932C739.59 168.183 740.44 168.498 740.975 169.033C741.384 169.442 741.667 170.134 741.667 170.7C741.667 171.266 741.384 171.958 740.88 172.43C740.471 172.871 739.811 173.217 739.402 173.217C738.993 173.217 735.878 172.745 732.481 172.179L726.252 171.172L719.992 176.205C722.037 178.628 723.358 180.106 724.207 181.05C725.088 181.994 727.133 183.881 728.769 185.265C730.688 186.838 732.764 188.222 734.589 189.103C736.161 189.858 737.797 190.55 738.301 190.645L739.15 190.833C739.15 185.108 739.213 184.793 739.936 184.07C740.345 183.629 740.912 183.283 741.195 183.283C741.446 183.283 742.988 183.504 744.592 183.787C746.763 184.164 748.556 184.259 751.891 184.133C754.565 184.007 757.396 183.692 759.126 183.283C760.699 182.937 763.247 182.214 764.789 181.647C766.361 181.113 769.004 180.043 770.703 179.225C772.401 178.439 773.786 177.715 773.754 177.621C773.754 177.526 772.59 177.149 771.175 176.74C769.727 176.331 767.211 175.387 765.575 174.601C763.939 173.814 761.454 172.43 760.07 171.486C758.686 170.574 756.798 169.127 755.917 168.278C754.69 167.177 754.25 166.547 754.25 165.918C754.25 165.415 754.376 164.786 754.533 164.503C754.659 164.188 755.697 163.213 756.798 162.332C757.899 161.451 759.755 160.161 760.951 159.438C762.115 158.714 765.009 157.141 767.4 155.946C769.759 154.782 773.723 152.957 776.208 151.951C778.662 150.913 780.675 150 780.675 149.875C780.675 149.717 778.819 148.522 776.554 147.201C774.257 145.848 772.276 144.495 772.15 144.212C771.992 143.897 771.867 143.363 771.867 143.017C771.867 142.671 774.572 137.449 777.844 131.377C781.147 125.337 783.789 120.272 783.758 120.178C783.695 120.084 778.284 121.782 771.709 123.953C765.135 126.124 759.441 127.917 759.063 127.917C758.654 127.917 758.025 127.602 757.616 127.225C757.081 126.658 756.735 125.62 756.169 122.569L755.414 118.636C754.156 120.146 751.922 122.663 749.689 125.243C747.455 127.791 744.404 131.031 742.925 132.415C741.446 133.799 739.339 135.687 738.206 136.599C737.074 137.511 735.312 138.77 734.274 139.368C733.236 139.997 732.009 140.5 731.537 140.5C731.034 140.5 730.31 140.154 729.87 139.714C729.272 139.116 729.115 138.675 729.178 137.92C729.241 137.354 731.726 129.112 734.714 119.58C737.703 110.048 740.094 102.247 740.031 102.215C739.968 102.152 738.175 102.844 736.004 103.694C733.834 104.575 731.757 105.267 731.38 105.267C730.971 105.267 730.31 104.921 729.87 104.48L729.083 103.694V87.3354C725.78 89.5375 724.49 90.1667 724.05 90.1667C723.61 90.1667 722.98 89.9779 722.634 89.7262C722.215 89.4536 721.156 86.9369 719.457 82.1762C718.041 78.2754 716.752 75.0667 716.594 75.0667C716.437 75.0667 715.116 78.2754 713.637 82.1762C711.907 86.8321 710.775 89.4431 710.366 89.7262Z" fill="white" fill-opacity="0.26"/>
<path fill-rule="evenodd" clip-rule="evenodd" d="M67.6943 21.7541C68.0688 21.986 68.5043 22.4777 68.6659 22.8739C68.8645 23.3299 68.3479 26.6733 67.1225 32.834C66.1228 37.9133 65.3564 42.138 65.4901 42.2208C65.5971 42.2871 67.0809 42.2811 68.7814 42.2241C70.6919 42.1863 72.2063 42.3102 72.6342 42.5753C73.0622 42.8403 73.4849 43.4721 73.8921 45.2045L69.3369 52.5591C66.8357 56.5975 64.8085 59.9304 64.8353 59.9469C64.8888 59.9801 67.1546 60.3843 69.921 60.8766C72.6606 61.3523 75.1939 61.9222 75.5416 62.1375C75.8625 62.3363 76.2419 62.9784 76.3845 63.5847C76.527 64.191 76.4733 64.9348 76.2746 65.2558C76.0592 65.6034 72.966 68.3871 69.4206 71.4827C65.8752 74.5783 60.1233 79.5636 56.6441 82.5522C53.2082 85.5306 50.2246 88.1971 50.0755 88.4378C49.8768 88.7588 51.3365 88.5527 54.135 87.9178C56.5169 87.3579 60.5574 86.271 63.0986 85.5137C65.6398 84.7564 69.5262 83.5002 71.7171 82.7109C73.9081 81.9217 76.0761 81.2293 76.5627 81.1606C77.0225 81.0754 77.7167 81.2093 78.0911 81.4412C78.4655 81.6731 78.8946 82.2349 79.0766 82.7177C79.3631 83.4501 79.14 84.348 77.5826 88.4159C76.5898 91.0943 75.7588 93.3919 75.7728 93.5486C75.8033 93.6785 82.1791 95.3332 89.9764 97.2022C97.7736 99.0712 104.43 100.751 104.777 100.967C105.098 101.166 105.478 101.808 105.62 102.414C105.763 103.02 105.693 103.791 105.461 104.165C105.229 104.54 99.2211 108.145 92.0747 112.156C84.955 116.183 79.15 119.581 79.1971 119.685C79.2607 119.761 80.5313 122.25 82.0706 125.202C83.6264 128.126 84.925 130.929 84.9936 131.415C85.0789 131.875 84.945 132.569 84.7131 132.944C84.4812 133.318 83.9194 133.747 83.4532 133.903C82.9436 134.068 81.0955 133.886 78.8361 133.411C76.7868 132.956 72.8792 132.275 70.193 131.833C67.5069 131.39 63.4133 130.89 61.085 130.706C58.7567 130.522 55.8718 130.4 54.6515 130.459C53.4479 130.49 52.4047 130.621 52.3486 130.771C52.2823 130.878 52.7037 131.99 53.3224 133.262C53.9144 134.516 54.8922 136.343 55.4932 137.344C56.1107 138.319 57.3115 140.025 58.1761 141.078C59.0241 142.159 60.635 143.859 61.7594 144.852C62.8839 145.844 64.5496 147.098 65.4857 147.678C66.9031 148.556 67.1846 148.878 67.3983 149.787C67.5409 150.394 67.4706 151.164 67.2387 151.539C67.0068 151.913 66.6119 152.372 66.3558 152.546C66.0565 152.731 64.4299 152.907 62.6594 152.958C60.9055 152.982 57.8741 152.917 55.9394 152.755C54.0046 152.593 50.8485 152.192 48.9163 151.847C46.9842 151.501 43.9033 150.74 42.0068 150.157C40.127 149.548 37.4218 148.539 35.9954 147.914C34.5423 147.273 31.7213 145.674 25.8835 141.837L24.5087 144.056C23.2829 146.035 23.0472 146.296 22.0677 146.504C21.1417 146.744 20.771 146.626 19.2466 145.682C18.2838 145.085 17.0294 144.123 16.4335 143.532C15.8108 142.925 14.5502 141.256 13.6372 139.802C12.7077 138.376 11.427 135.843 10.7803 134.258C10.1501 132.647 9.19045 129.536 7.71813 123.37L-8.84606 150.114L-9.92877 150.369C-10.595 150.548 -11.2789 150.458 -11.8138 150.126C-12.3219 149.812 -12.7078 149.24 -13.1251 147.464L3.43906 120.72L-0.528753 121.63C-2.72091 122.122 -5.93333 122.649 -7.6567 122.802C-9.38007 122.956 -12.2179 122.938 -13.9093 122.741C-15.6173 122.571 -17.673 122.186 -18.4678 121.916C-19.2892 121.629 -20.7093 120.935 -21.6721 120.338C-23.1697 119.411 -23.441 119.132 -23.6649 118.179C-23.8991 117.183 -23.7869 116.882 -21.1863 112.684L-25.077 110.422C-27.1962 109.183 -29.8579 107.387 -31.0155 106.448C-32.1565 105.482 -34.1647 103.646 -35.4674 102.284C-36.7867 100.949 -38.9209 98.4803 -40.1917 96.7682C-41.479 95.0827 -43.3444 92.2993 -44.3515 90.6394C-45.3586 88.9795 -46.7668 86.2942 -47.5268 84.7134C-48.2703 83.1058 -48.8368 81.5709 -48.7781 81.2372C-48.7627 80.9136 -48.5283 80.3558 -48.2964 79.9814C-48.0645 79.607 -47.4492 79.211 -46.8862 79.0786C-46.0302 78.8317 -45.5526 79.0165 -42.9927 80.38C-41.3919 81.2605 -39.0268 82.2812 -37.7647 82.6929C-36.4859 83.0779 -34.2863 83.5891 -32.9082 83.8136C-31.5467 84.0648 -29.0082 84.2679 -27.2875 84.2976C-25.5667 84.3273 -23.8663 84.2703 -23.5198 84.1889C-22.9568 84.0565 -22.9173 83.933 -23.2241 83.1139C-23.4163 82.5879 -24.4246 80.6312 -25.4763 78.6847C-26.5012 76.7548 -28.9242 72.9599 -30.796 70.2465C-32.6677 67.5331 -35.4041 63.7661 -36.9155 61.9049C-38.6015 59.7876 -39.6685 58.1646 -39.7308 57.608C-39.7994 57.1215 -39.6655 56.4273 -39.4336 56.0529C-39.2017 55.6785 -38.6399 55.2494 -38.1903 55.1208C-37.7241 54.9655 -34.6366 54.8796 -31.325 54.9695C-27.9968 55.0326 -25.2023 55.0613 -25.1055 55.0842C-24.9921 55.0804 -24.5359 48.3694 -24.1023 40.2012C-23.6954 32.0164 -23.1436 25.0315 -22.9117 24.6571C-22.6798 24.2826 -22.0212 23.8765 -21.4149 23.7339C-20.8353 23.5749 -20.0915 23.6285 -19.7438 23.8439C-19.3961 24.0592 -14.9266 29.2697 -9.77961 35.4177C-4.63264 41.5658 -0.310775 46.5368 -0.180849 46.5063C-0.0343597 46.449 1.65243 44.6814 3.60804 42.5994C6.55612 39.3928 7.26061 38.793 8.04396 38.7232C8.55728 38.6711 9.25142 38.805 9.62584 39.0369C10.0003 39.2688 10.4294 39.8306 10.5579 40.2802C10.7132 40.7464 11.0592 42.9959 11.3287 45.309C11.5982 47.6221 12.2048 51.6612 12.659 54.2737C13.1131 56.8861 13.9401 60.9877 14.5 63.3696C15.1783 66.1579 15.6441 67.5566 15.8263 67.2624C15.992 66.9949 17.05 63.1358 18.2024 58.7061C19.3116 54.2866 21.2123 46.9161 22.4042 42.3628C23.5962 37.8096 24.7103 33.8002 24.9091 33.4792C25.1244 33.1316 25.7664 32.7521 26.3727 32.6096C26.9523 32.4505 27.6962 32.5042 28.0438 32.7195C28.3915 32.9349 30.0303 34.949 31.6767 37.1898C33.3499 39.4472 34.7213 41.2956 34.7747 41.3288C34.8015 41.3453 36.8822 38.0456 43.9819 26.6424L45.0213 26.3981C45.6441 26.2288 46.3982 26.3258 46.8261 26.5908C47.2807 26.8724 48.0829 28.1463 48.8836 29.9004C49.5902 31.4481 50.2459 32.7792 50.3796 32.8621C50.4866 32.9283 53.9274 30.36 58.0295 27.2021C62.9991 23.3604 65.7622 21.4085 66.259 21.3831C66.6857 21.3514 67.3199 21.5222 67.6943 21.7541V21.7541ZM49.4598 39.545C49.0331 39.5768 48.3988 39.406 48.0244 39.1741C47.6499 38.9422 46.8847 37.7281 46.3093 36.4467L45.2361 34.1168L36.6227 48.0238C34.9604 48.4374 34.2166 48.3837 33.8689 48.1684C33.5212 47.9531 32.1205 46.2714 30.739 44.3797C29.3408 42.5147 28.1808 40.9821 28.0942 41.0025C28.0242 40.9961 25.9322 48.9143 23.4705 58.5647C20.9923 68.2418 18.7653 76.5573 18.4939 77.0553C18.1766 77.7468 17.8109 78.0384 16.9881 78.2318C16.3652 78.4011 15.6112 78.3041 15.1833 78.0391C14.7821 77.7907 13.9774 76.7002 13.4261 75.6187C12.8582 74.5639 12.0028 72.4799 11.4732 71.0049C10.9704 69.5463 10.1253 66.7287 9.62393 64.79C9.12251 62.8513 8.28154 58.5931 7.71802 55.3208C7.18124 52.0651 6.64445 48.8094 6.55162 48.1228L6.36976 46.8631C1.60239 52.0511 0.728452 52.805 -0.024354 53.0048C-0.544059 53.1269 -1.24458 53.0631 -1.59226 52.8477C-1.93993 52.6324 -5.83648 48.1099 -10.2831 42.8026C-14.7297 37.4953 -18.4353 33.2021 -18.5117 33.2658C-18.6149 33.3129 -19.0084 39.0267 -19.4074 45.8842C-19.7961 52.7851 -20.2725 58.6326 -20.4547 58.9268C-20.6369 59.221 -21.0255 59.6094 -21.3249 59.794C-21.5809 59.9684 -23.9781 60.0749 -26.6427 60.0157C-29.2639 59.9463 -31.4713 59.9853 -31.5541 60.1191C-31.6204 60.226 -30.7176 61.6362 -29.5372 63.2554C-28.3301 64.8911 -26.3476 67.7841 -25.0794 69.6797C-23.8278 71.602 -21.9714 74.6389 -20.9503 76.4555C-19.9457 78.2988 -18.6675 81.0146 -18.0845 82.5228C-17.5015 84.031 -17.0382 85.6131 -17.0065 86.0398C-17.0015 86.4499 -17.222 87.1644 -17.487 87.5923C-17.868 88.2074 -18.4871 88.49 -20.1964 88.8004C-21.3925 89.0587 -23.7591 89.2951 -25.4162 89.3419C-27.0899 89.4154 -29.9315 89.2836 -31.7363 89.0908C-33.5411 88.8981 -36.1776 88.3753 -37.6232 87.961C-39.042 87.5633 -40.2303 87.2714 -40.28 87.3516C-40.3297 87.4318 -39.7351 88.5032 -38.9164 89.7503C-38.1142 91.0242 -36.8664 92.8331 -36.1355 93.8039C-35.4046 94.7746 -33.9772 96.4728 -32.9521 97.6257C-31.9104 98.7519 -30.0423 100.575 -28.7841 101.65C-27.5425 102.752 -25.2515 104.43 -23.7003 105.391C-22.1326 106.325 -19.8134 107.539 -18.5042 108.054C-17.1949 108.569 -15.9022 109.111 -15.6348 109.276C-15.3941 109.425 -15.0681 110.034 -14.9256 110.641C-14.6915 111.637 -14.787 111.911 -16.2447 114.264L-17.8183 116.805C-16.5192 117.276 -14.7374 117.566 -13.0294 117.736C-11.0411 117.931 -8.4937 117.881 -6.06084 117.537C-3.95788 117.249 -0.353098 116.447 1.88496 115.761C4.12302 115.075 6.021 114.4 6.08726 114.293C6.12677 114.17 5.56291 112.451 4.8246 110.477L3.49946 106.881C-5.51248 103.15 -8.40863 101.911 -8.72956 101.712C-9.07723 101.497 -9.45665 100.855 -9.59917 100.248C-9.76205 99.5554 -9.67147 98.8715 -9.35675 98.3633C-9.0586 97.8819 -8.45349 97.4427 -7.86373 97.3269C-7.15423 97.1373 -6.2665 97.317 -4.6898 97.9976C-3.47733 98.4895 -1.65355 99.249 -0.634677 99.695L1.18911 100.455L-7.46411 75.8904C-16.6208 70.1821 -16.6743 70.149 -16.9288 69.0663C-17.0917 68.3734 -17.0011 67.6894 -16.6864 67.1813C-16.3882 66.6999 -15.7831 66.2606 -15.1067 66.1244C-14.1807 65.8839 -13.8368 65.9859 -12.0984 67.0626L-10.1627 68.2985C-13.6467 58.629 -14.6764 55.512 -14.7145 55.1553C-14.7527 54.7987 -14.5551 54.181 -14.3066 53.7798C-14.0416 53.3519 -13.3665 52.919 -12.7601 52.7765C-12.1373 52.6072 -11.3832 52.7042 -10.9553 52.9692C-10.3504 53.3069 -9.03286 56.6761 -4.79278 68.5901C-1.80778 76.9145 0.690986 83.7536 0.804349 83.7498C0.917709 83.746 1.70141 82.1222 2.53359 80.1214C3.7162 77.3755 4.22589 76.4331 4.74818 76.1275C5.12398 75.8792 5.8271 75.7596 6.33782 75.8909C6.83837 75.9789 7.51336 76.323 7.89158 76.6683C8.24305 76.9969 8.52567 77.616 8.52429 78.0962C8.53948 78.5497 7.37205 81.749 5.96892 85.2093C3.76674 90.617 3.45064 91.6053 3.7205 92.3645C3.87579 92.8307 5.33326 96.9897 6.96258 101.588L9.93102 109.939L37.1472 66.2953C34.0932 53.3028 33.9558 52.3296 34.4362 51.554C34.7841 50.9924 35.3293 50.59 36.049 50.4437C36.7585 50.2541 37.3991 50.3549 37.9875 50.7193C38.7198 51.2098 39.0228 51.9155 39.9186 55.7267L40.957 60.1441C47.4833 49.6069 47.4998 49.5802 48.5825 49.3257C49.2487 49.1462 49.9327 49.2368 50.4676 49.5681C50.9757 49.8828 51.3615 50.4548 51.5244 51.1477L51.7789 52.2304L37.2852 75.6316C45.4973 73.7242 46.2806 73.6543 47.046 74.0913C47.6166 74.4447 47.9867 74.9823 48.1563 75.7041C48.3294 76.4403 48.2286 77.081 47.8642 77.6694C47.4004 78.4182 46.468 78.7288 40.4048 80.154L33.4755 81.7828L14.4775 112.755C28.1193 111.102 32.4921 110.554 33.0054 110.502C33.7786 110.389 34.5226 109.666 38.3829 105.285C40.8558 102.487 43.2 100.017 43.6127 99.8285C44.042 99.6133 44.7757 99.6236 45.2533 99.8084C45.7576 100.01 46.3701 100.574 46.6923 101.07C46.9877 101.549 47.1607 102.285 47.0256 102.682C46.9071 103.053 45.7298 104.655 44.359 106.211C43.0149 107.784 41.9434 109.155 41.9905 109.259C42.0376 109.362 49.2737 108.552 58.0562 107.516C70.4816 106.035 74.2149 105.683 74.7867 106.074C75.1878 106.322 75.6208 106.998 75.7633 107.604C75.9058 108.21 75.819 109.008 75.554 109.436C75.3055 109.837 74.8405 110.289 74.5042 110.413C74.1679 110.538 70.9186 111.005 67.2923 111.423L60.7095 112.194C64.3901 114.436 64.6346 114.699 64.8585 115.651C65.0214 116.344 64.9308 117.028 64.6161 117.536C64.3179 118.018 63.7128 118.457 63.0365 118.593C61.9805 118.864 61.927 118.831 57.3537 115.999L52.7104 113.16L26.8636 116.356C29.2093 118.364 30.7018 119.659 31.6824 120.525C32.994 121.633 33.5505 122.348 33.7235 123.084C33.8559 123.647 33.7322 124.385 33.434 124.866C33.1359 125.347 32.5308 125.787 31.8544 125.923C31.2748 126.082 30.531 126.028 30.1833 125.813C29.8356 125.598 27.4364 123.557 24.8462 121.286L20.0809 117.151L12.1085 118.134C12.5714 121.27 12.9162 123.222 13.1414 124.472C13.3933 125.738 14.1378 128.419 14.7997 130.457C15.6029 132.805 16.6391 135.075 17.7265 136.784C18.6662 138.255 19.6925 139.704 20.0707 140.05L20.6934 140.657C23.7081 135.79 23.9272 135.555 24.9233 135.321C25.5029 135.162 26.1665 135.166 26.4072 135.315C26.6211 135.448 27.8157 136.447 29.0305 137.532C30.6771 138.996 32.1518 140.02 35.053 141.669C37.3925 142.97 39.9651 144.194 41.6514 144.757C43.1708 145.291 45.7181 146.017 47.3267 146.348C48.9455 146.721 51.7552 147.203 53.63 147.402C55.4883 147.628 57.0461 147.742 57.069 147.645C57.1187 147.565 56.3279 146.631 55.3398 145.538C54.3249 144.429 52.6823 142.301 51.7057 140.771C50.7291 139.241 49.3451 136.756 48.6653 135.225C47.9689 133.72 47.1262 131.496 46.8246 130.31C46.3613 128.728 46.3182 127.961 46.6495 127.427C46.9145 126.999 47.3528 126.53 47.6356 126.372C47.9082 126.171 49.3042 125.889 50.7041 125.719C52.1039 125.55 54.361 125.431 55.7582 125.445C57.1287 125.443 60.4174 125.63 63.0794 125.873C65.6981 126.125 70.0286 126.661 72.6715 127.114C75.3041 127.523 77.4961 127.808 77.5624 127.701C77.6452 127.567 76.6967 125.574 75.4668 123.258C74.2268 120.899 73.2541 118.705 73.2962 118.398C73.3282 118.048 73.5028 117.527 73.685 117.233C73.8672 116.939 78.9169 113.924 84.8951 110.485C90.8836 107.089 95.797 104.175 95.8199 104.078C95.8161 103.964 90.3216 102.559 83.5892 100.943C76.8567 99.3264 71.0718 97.8527 70.7509 97.6539C70.4032 97.4386 70.034 96.8398 69.8851 96.3036C69.7286 95.5406 69.981 94.4758 71.1063 91.5835L72.535 87.8429C70.6702 88.4641 67.4462 89.4275 64.1891 90.4445C60.9485 91.4347 56.6482 92.5827 54.6624 92.9809C52.6766 93.3791 49.8909 93.874 48.4478 94.0532C47.0046 94.2325 44.8443 94.3747 43.6471 94.3362C42.4332 94.3245 41.1252 94.1064 40.724 93.8579C40.2961 93.5929 39.8632 92.9177 39.7207 92.3114C39.5272 91.4885 39.6254 91.0313 40.0765 90.4226C40.4281 89.9743 46.8807 84.2759 54.4404 77.746C62 71.2161 68.1405 65.8424 68.1036 65.7825C68.0832 65.6959 66.1944 65.3401 63.9018 64.9193C61.5927 64.5252 59.4631 64.0203 59.1422 63.8216C58.7945 63.6062 58.4151 62.9642 58.2726 62.3579L58.0181 61.2752L66.6315 47.3682C62.6638 47.501 61.236 47.3568 60.8616 47.1249C60.4872 46.893 60.0517 46.4012 59.89 46.0051C59.677 45.5524 60.1017 42.8552 61.1642 37.9135C62.0147 33.8518 62.6078 30.4447 62.474 30.3619C62.3403 30.2791 59.5275 32.3113 56.2166 34.8491C52.2941 37.8962 49.9565 39.5197 49.4598 39.545Z" fill="white" fill-opacity="0.33"/>
<path fill-rule="evenodd" clip-rule="evenodd" d="M222.028 112.188C223.973 111.666 226.231 111.107 227.04 110.957C227.85 110.806 229.267 110.561 230.179 110.407C231.094 110.265 232.801 110.042 233.979 109.916C235.158 109.79 236.804 109.673 237.647 109.642C238.494 109.622 239.82 109.608 240.614 109.629C241.407 109.65 242.615 109.721 243.305 109.784C243.997 109.859 245.181 110.027 245.93 110.163C246.682 110.311 247.836 110.603 248.502 110.814C249.168 111.025 250.166 111.45 250.718 111.758C251.281 112.062 252.05 112.591 252.446 112.942C252.842 113.293 253.383 113.886 253.647 114.274C254.113 114.966 254.169 115.117 256.343 122.704C257.805 127.805 258.6 130.768 258.694 131.423C258.784 132.065 258.779 132.735 258.67 133.357C258.585 133.882 258.391 134.566 258.24 134.904C258.087 135.23 257.725 135.872 257.427 136.328C257.13 136.785 256.456 137.604 255.938 138.148C255.42 138.692 254.416 139.579 253.717 140.123C253.018 140.666 251.797 141.511 251.017 142.001C250.238 142.49 248.855 143.265 247.955 143.737C247.054 144.208 245.415 144.991 244.313 145.481C243.212 145.971 241.734 146.593 241.02 146.858C240.311 147.135 239.004 147.631 238.103 147.962C237.201 148.293 235.023 148.996 233.25 149.533C231.274 150.128 229.233 150.677 227.965 150.944C226.829 151.174 225.207 151.515 224.362 151.676C223.519 151.849 221.944 152.125 220.854 152.29C219.764 152.456 218.079 152.66 217.11 152.753C216.142 152.846 214.544 152.949 213.559 152.982C212.574 153.015 211.15 153.004 210.389 152.962C209.631 152.931 208.531 152.829 207.938 152.739C207.347 152.661 206.362 152.463 205.751 152.314C205.141 152.164 204.439 151.964 204.204 151.863C203.969 151.762 203.296 151.437 202.73 151.121C201.998 150.723 201.471 150.319 200.985 149.787C200.481 149.235 200.163 148.747 199.851 148.051C199.52 147.334 198.863 145.091 197.28 139.329C195.18 131.734 195.146 131.564 195.182 130.732C195.205 130.263 195.358 129.474 195.512 128.968C195.667 128.462 196.076 127.576 196.415 126.992C196.755 126.408 197.387 125.536 197.817 125.043C198.246 124.549 199.111 123.676 199.728 123.117C200.346 122.557 201.345 121.749 201.933 121.314C202.52 120.879 203.618 120.146 204.374 119.663C205.129 119.181 206.348 118.465 207.087 118.064C207.827 117.663 209.314 116.936 210.373 116.432C211.436 115.94 213.235 115.177 214.354 114.746C215.472 114.316 216.868 113.769 217.438 113.544C218.01 113.331 220.082 112.71 222.028 112.188ZM216.646 116.466C215.709 116.806 214.164 117.421 213.22 117.828C212.263 118.239 211.061 118.783 210.525 119.037C209.993 119.302 208.834 119.911 207.937 120.395C207.04 120.879 205.747 121.654 205.061 122.104C204.377 122.566 203.449 123.213 203.012 123.542C202.575 123.87 201.75 124.565 201.186 125.084C200.622 125.602 199.897 126.333 199.576 126.706C199.255 127.079 198.734 127.843 198.424 128.393C198.117 128.955 197.804 129.724 197.729 130.143C197.621 130.726 197.64 131.068 197.808 131.663C197.979 132.27 198.138 132.56 198.533 133.001C198.813 133.308 199.497 133.809 200.048 134.117C200.603 134.436 201.488 134.829 202.039 134.996C202.577 135.165 203.576 135.411 204.255 135.528C204.937 135.657 206.145 135.819 206.936 135.879C207.731 135.95 208.858 136.006 209.431 136.024C210.005 136.043 211.048 136.032 211.753 136.014C212.454 135.983 213.764 135.91 214.672 135.834C215.577 135.746 217.227 135.552 218.353 135.376C219.479 135.201 221.105 134.923 221.983 134.74C222.865 134.569 224.552 134.184 225.747 133.886C226.945 133.6 229.116 132.964 230.579 132.474C232.04 131.973 233.965 131.29 234.856 130.924C235.751 130.569 237.157 129.968 237.97 129.597C238.782 129.227 240.044 128.615 240.751 128.236C241.461 127.869 242.743 127.149 243.591 126.627C244.438 126.106 245.711 125.259 246.413 124.728C247.116 124.196 248.153 123.338 248.718 122.82C249.282 122.301 250.063 121.451 250.453 120.956C250.84 120.449 251.316 119.711 251.51 119.297C251.694 118.898 251.911 118.245 251.973 117.868C252.057 117.343 252.037 116.951 251.886 116.415C251.722 115.831 251.563 115.542 251.168 115.101C250.888 114.794 250.289 114.32 249.854 114.057C249.418 113.794 248.587 113.411 248 113.204C247.415 113.009 246.328 112.724 245.579 112.587C244.827 112.439 243.761 112.277 243.217 112.224C242.673 112.172 241.488 112.094 240.589 112.065C239.69 112.035 238.186 112.06 237.243 112.107C236.301 112.154 234.67 112.279 233.645 112.4C232.605 112.513 230.965 112.743 229.978 112.905C228.994 113.08 227.234 113.434 226.065 113.686C224.9 113.949 222.996 114.434 221.85 114.769C220.705 115.104 219.443 115.485 219.055 115.62C218.664 115.743 217.583 116.125 216.646 116.466ZM202.282 147.559C203.02 148.392 203.558 148.832 203.956 149.054C204.369 149.285 205.105 149.604 205.613 149.757C206.121 149.91 207.035 150.128 207.647 150.238C208.268 150.333 209.465 150.459 210.308 150.517C211.16 150.56 212.776 150.568 213.899 150.521C215.026 150.487 216.822 150.354 217.886 150.234C218.95 150.115 220.884 149.827 222.165 149.608C223.447 149.389 226.054 148.835 227.956 148.389C230.631 147.752 232.175 147.317 234.837 146.452C236.716 145.834 239.266 144.936 240.473 144.455C241.681 143.973 243.581 143.156 244.676 142.642C245.771 142.128 247.373 141.304 248.228 140.807C249.085 140.321 250.371 139.522 251.084 139.026C251.797 138.53 252.753 137.798 253.209 137.4C253.665 137.002 254.319 136.342 254.673 135.947C255.026 135.552 255.487 134.895 255.708 134.486C255.944 134.086 256.173 133.43 256.243 133.038L256.368 132.334C253.965 123.797 253.231 121.331 253.172 121.347C253.12 121.349 253.01 121.508 252.919 121.688C252.824 121.856 252.35 122.465 251.874 123.023C251.398 123.581 250.599 124.41 250.093 124.861C249.599 125.309 248.73 126.029 248.157 126.473C247.594 126.901 246.636 127.582 246.038 127.982C245.437 128.369 244.245 129.09 243.388 129.576C242.53 130.061 240.964 130.875 239.893 131.382C238.821 131.889 237.225 132.596 236.331 132.95C235.439 133.317 233.969 133.872 233.067 134.203C232.163 134.522 229.942 135.211 228.135 135.72C226.328 136.228 224.05 136.805 223.076 137.015C222.099 137.213 220.554 137.507 219.638 137.649C218.726 137.803 217.122 138.023 216.094 138.133C215.054 138.245 213.297 138.38 212.174 138.427C211.047 138.461 209.449 138.474 208.625 138.436C207.804 138.41 206.55 138.313 205.854 138.226C205.161 138.152 204.123 137.994 203.562 137.882C203.001 137.77 201.968 137.496 201.259 137.271C200.55 137.047 199.84 136.771 199.671 136.677C199.499 136.571 199.322 136.493 199.266 136.521C199.218 136.535 199.879 139.022 200.734 142.058L202.282 147.559ZM248.073 116.216C248.312 116.149 248.612 116.206 248.927 116.361C249.358 116.561 249.439 116.667 249.568 117.17C249.658 117.492 249.685 117.998 249.636 118.282C249.578 118.581 249.344 119.174 249.1 119.589C248.858 120.017 248.379 120.653 248.019 121.025C247.658 121.396 246.887 122.05 246.302 122.497C245.714 122.933 244.685 123.634 244.021 124.026C243.348 124.434 242.175 125.085 241.396 125.484C240.618 125.884 239.285 126.516 238.436 126.896C237.588 127.276 236.098 127.901 235.143 128.273C234.177 128.648 232.386 129.306 231.159 129.716C229.922 130.141 228.368 130.63 226.466 131.165L225.89 130.864C225.373 130.586 225.329 130.521 225.29 130.108C225.271 129.857 225.356 129.473 225.477 129.259C225.696 128.889 225.716 128.87 228.52 128.004C230.062 127.518 232.278 126.766 233.433 126.325C234.587 125.885 236.257 125.209 237.138 124.807C238.022 124.417 239.254 123.839 239.876 123.522C240.497 123.206 241.673 122.567 242.471 122.098C243.28 121.626 244.32 120.961 244.766 120.617C245.223 120.269 245.847 119.734 246.153 119.442C246.455 119.139 246.839 118.671 246.998 118.408C247.156 118.145 247.252 117.796 247.208 117.642C247.177 117.484 247.269 117.123 247.424 116.848C247.616 116.473 247.809 116.29 248.073 116.216Z" fill="white" fill-opacity="0.28"/>
<path fill-rule="evenodd" clip-rule="evenodd" d="M1103.75 132.946C1106.31 133.49 1109.26 134.176 1110.29 134.479C1111.32 134.783 1113.1 135.336 1114.25 135.696C1115.4 136.072 1117.51 136.822 1118.95 137.371C1120.39 137.921 1122.37 138.759 1123.37 139.22C1124.36 139.698 1125.91 140.465 1126.82 140.958C1127.72 141.451 1129.08 142.248 1129.85 142.728C1130.61 143.224 1131.88 144.118 1132.67 144.719C1133.45 145.335 1134.62 146.355 1135.27 146.993C1135.91 147.632 1136.82 148.715 1137.28 149.398C1137.75 150.083 1138.33 151.151 1138.58 151.792C1138.84 152.433 1139.11 153.441 1139.19 154.047C1139.32 155.124 1139.3 155.333 1137.34 165.418C1136.02 172.199 1135.19 176.106 1134.91 176.92C1134.64 177.719 1134.24 178.493 1133.74 179.15C1133.33 179.709 1132.7 180.388 1132.33 180.691C1131.96 180.978 1131.16 181.509 1130.55 181.862C1129.93 182.216 1128.67 182.768 1127.74 183.094C1126.82 183.419 1125.13 183.854 1124 184.072C1122.87 184.289 1120.95 184.548 1119.76 184.655C1118.57 184.762 1116.5 184.844 1115.18 184.859C1113.86 184.875 1111.49 184.814 1109.93 184.731C1108.36 184.649 1106.28 184.497 1105.29 184.383C1104.31 184.285 1102.5 184.088 1101.26 183.94C1100.02 183.791 1097.07 183.32 1094.7 182.896C1092.06 182.418 1089.36 181.849 1087.74 181.409C1086.28 181.005 1084.2 180.442 1083.12 180.129C1082.04 179.832 1080.05 179.222 1078.69 178.77C1077.33 178.318 1075.25 177.559 1074.07 177.095C1072.9 176.63 1070.98 175.805 1069.82 175.262C1068.66 174.718 1067.01 173.865 1066.16 173.366C1065.29 172.882 1064.08 172.114 1063.44 171.659C1062.8 171.22 1061.78 170.408 1061.16 169.874C1060.54 169.34 1059.84 168.692 1059.63 168.437C1059.42 168.181 1058.83 167.407 1058.36 166.705C1057.74 165.811 1057.37 165.031 1057.12 164.128C1056.86 163.19 1056.78 162.435 1056.83 161.443C1056.87 160.416 1057.44 157.425 1059 149.807C1061.06 139.757 1061.12 139.539 1061.65 138.595C1061.95 138.065 1062.6 137.24 1063.07 136.745C1063.55 136.249 1064.55 135.463 1065.29 134.986C1066.03 134.509 1067.28 133.871 1068.07 133.553C1068.86 133.234 1070.38 132.732 1071.42 132.448C1072.47 132.164 1074.11 131.817 1075.04 131.659C1075.98 131.502 1077.69 131.3 1078.85 131.186C1080.01 131.073 1081.85 130.963 1082.94 130.935C1084.04 130.907 1086.19 130.942 1087.72 130.983C1089.24 131.041 1091.78 131.218 1093.33 131.38C1094.88 131.541 1096.83 131.731 1097.62 131.807C1098.41 131.899 1101.18 132.402 1103.75 132.946ZM1094.98 134.728C1093.69 134.57 1091.53 134.37 1090.2 134.285C1088.84 134.196 1087.13 134.117 1086.36 134.094C1085.58 134.088 1083.88 134.109 1082.55 134.141C1081.23 134.172 1079.27 134.307 1078.21 134.424C1077.14 134.556 1075.68 134.758 1074.98 134.881C1074.28 135.004 1072.91 135.323 1071.95 135.591C1070.99 135.859 1069.72 136.279 1069.13 136.522C1068.53 136.765 1067.48 137.343 1066.79 137.797C1066.1 138.268 1065.29 138.975 1064.95 139.417C1064.48 140.03 1064.3 140.437 1064.14 141.227C1063.98 142.032 1064 142.462 1064.2 143.207C1064.34 143.729 1064.84 144.714 1065.29 145.396C1065.75 146.095 1066.54 147.074 1067.08 147.592C1067.61 148.107 1068.62 148.982 1069.34 149.519C1070.05 150.072 1071.36 150.973 1072.24 151.51C1073.12 152.063 1074.4 152.793 1075.05 153.153C1075.71 153.513 1076.92 154.117 1077.75 154.512C1078.58 154.891 1080.14 155.58 1081.24 156.029C1082.34 156.462 1084.37 157.211 1085.78 157.673C1087.19 158.134 1089.24 158.773 1090.37 159.079C1091.49 159.402 1093.68 159.952 1095.24 160.312C1096.8 160.689 1099.69 161.233 1101.68 161.53C1103.67 161.812 1106.31 162.157 1107.56 162.258C1108.8 162.375 1110.79 162.508 1111.95 162.559C1113.11 162.61 1114.94 162.645 1115.98 162.623C1117.02 162.617 1118.94 162.539 1120.23 162.435C1121.52 162.331 1123.49 162.101 1124.62 161.899C1125.75 161.697 1127.46 161.315 1128.42 161.047C1129.38 160.779 1130.79 160.255 1131.54 159.911C1132.29 159.551 1133.27 158.976 1133.74 158.61C1134.19 158.256 1134.83 157.628 1135.12 157.227C1135.53 156.668 1135.74 156.201 1135.88 155.49C1136.04 154.716 1136.02 154.287 1135.83 153.541C1135.68 153.02 1135.27 152.116 1134.92 151.554C1134.57 150.992 1133.83 150.057 1133.27 149.469C1132.71 148.897 1131.62 147.924 1130.83 147.324C1130.04 146.708 1128.9 145.889 1128.3 145.507C1127.7 145.125 1126.37 144.335 1125.35 143.769C1124.32 143.204 1122.56 142.344 1121.44 141.841C1120.32 141.339 1118.36 140.52 1117.1 140.056C1115.82 139.572 1113.78 138.871 1112.54 138.475C1111.3 138.096 1109.05 137.467 1107.54 137.069C1106.04 136.686 1103.54 136.123 1102.01 135.835C1100.49 135.548 1098.8 135.244 1098.27 135.171C1097.74 135.083 1096.26 134.886 1094.98 134.728ZM1059.94 162.309C1060.31 163.712 1060.67 164.539 1061 165.032C1061.35 165.544 1062.01 166.349 1062.51 166.826C1063.01 167.304 1063.94 168.097 1064.58 168.586C1065.25 169.063 1066.56 169.917 1067.51 170.482C1068.47 171.035 1070.34 171.999 1071.67 172.609C1073 173.235 1075.16 174.142 1076.46 174.632C1077.77 175.121 1080.18 175.931 1081.8 176.433C1083.41 176.936 1086.76 177.834 1089.23 178.441C1092.71 179.282 1094.76 179.69 1098.36 180.259C1100.9 180.652 1104.39 181.117 1106.08 181.272C1107.76 181.427 1110.45 181.602 1112.02 181.652C1113.6 181.703 1115.94 181.694 1117.23 181.622C1118.51 181.566 1120.47 181.399 1121.59 181.244C1122.71 181.09 1124.25 180.806 1125.02 180.613C1125.78 180.421 1126.93 180.042 1127.58 179.793C1128.22 179.543 1129.14 179.054 1129.64 178.71C1130.15 178.385 1130.8 177.76 1131.12 177.346L1131.68 176.604C1133.93 165.281 1134.54 161.987 1134.46 161.971C1134.4 161.942 1134.18 162.062 1133.97 162.217C1133.76 162.356 1132.85 162.782 1131.96 163.148C1131.08 163.515 1129.67 164.004 1128.81 164.228C1127.98 164.455 1126.54 164.777 1125.62 164.954C1124.71 165.118 1123.19 165.341 1122.27 165.452C1121.34 165.546 1119.53 165.678 1118.25 165.735C1116.97 165.792 1114.67 165.81 1113.13 165.765C1111.59 165.721 1109.32 165.597 1108.07 165.48C1106.82 165.378 1104.79 165.154 1103.54 165.005C1102.31 164.84 1099.32 164.328 1096.93 163.85C1094.53 163.373 1091.55 162.696 1090.29 162.364C1089.04 162.016 1087.08 161.444 1085.93 161.068C1084.78 160.708 1082.79 160.015 1081.53 159.535C1080.26 159.051 1078.14 158.17 1076.81 157.56C1075.49 156.934 1073.62 156.005 1072.69 155.474C1071.75 154.959 1070.36 154.106 1069.6 153.594C1068.84 153.098 1067.73 152.302 1067.14 151.84C1066.56 151.379 1065.52 150.45 1064.83 149.771C1064.15 149.092 1063.48 148.352 1063.34 148.144C1063.21 147.92 1063.05 147.724 1062.97 147.724C1062.9 147.711 1062.2 150.986 1061.4 155.013L1059.94 162.309ZM1131.58 153.006C1131.89 153.07 1132.21 153.313 1132.48 153.679C1132.86 154.166 1132.9 154.336 1132.75 154.996C1132.66 155.423 1132.39 156.026 1132.17 156.326C1131.93 156.639 1131.3 157.188 1130.77 157.526C1130.24 157.88 1129.31 158.334 1128.67 158.552C1128.04 158.77 1126.75 159.073 1125.81 159.246C1124.87 159.404 1123.26 159.609 1122.26 159.672C1121.24 159.747 1119.5 159.81 1118.36 159.813C1117.22 159.816 1115.3 159.761 1114.09 159.701C1112.88 159.641 1110.78 159.486 1109.46 159.353C1108.11 159.216 1105.65 158.922 1103.98 158.672C1102.3 158.435 1100.2 158.084 1097.68 157.581L1097.19 156.892C1096.76 156.263 1096.74 156.162 1096.94 155.66C1097.07 155.357 1097.39 154.962 1097.66 154.785C1098.13 154.486 1098.17 154.476 1101.93 155.128C1104.01 155.476 1107.02 155.912 1108.62 156.083C1110.22 156.254 1112.56 156.457 1113.82 156.511C1115.07 156.581 1116.84 156.638 1117.75 156.638C1118.66 156.639 1120.4 156.592 1121.6 156.519C1122.82 156.45 1124.42 156.293 1125.14 156.157C1125.88 156.024 1126.92 155.772 1127.44 155.614C1127.97 155.441 1128.7 155.125 1129.03 154.913C1129.37 154.702 1129.69 154.354 1129.73 154.149C1129.79 153.947 1130.11 153.584 1130.45 153.357C1130.89 153.035 1131.23 152.937 1131.58 153.006Z" fill="white" fill-opacity="0.28"/>
<path fill-rule="evenodd" clip-rule="evenodd" d="M391.125 115.528C392.214 115.929 393.017 116.453 393.384 116.972C393.745 117.42 394.216 118.183 394.438 118.643C394.676 119.144 394.944 120.163 395.008 120.932C395.113 122.021 394.944 122.696 394.367 123.884C393.703 125.207 385.698 132.983 340.976 175.666C312.056 203.319 287.719 226.521 286.881 227.267C286.054 227.983 284.575 228.979 283.585 229.428C282.613 229.918 281.082 230.454 280.156 230.658C279.23 230.862 277.525 230.99 274.166 230.863L236.472 215.788L235.645 214.647C235.214 214.036 234.673 213.11 234.475 212.591C234.277 212.073 234.109 208.02 234.092 203.588C234.087 197.607 234.215 195.26 234.611 194.269C234.902 193.541 235.514 192.604 235.985 192.184C236.445 191.794 237.243 191.235 237.732 191.025C238.204 190.774 239.083 190.518 239.682 190.454C240.643 190.331 242.89 191.128 281.329 206.197L333.089 161.364C361.554 136.705 385.28 116.298 385.787 115.96C386.311 115.663 387.335 115.296 388.069 115.15C389.105 114.923 389.845 115.016 391.096 115.516L391.125 115.528ZM372.273 131.601C364.151 138.655 356 145.698 354.189 147.271L350.905 150.079L359.754 153.449C385.96 128.359 391.497 122.872 391.753 122.231C391.975 121.678 391.981 120.903 391.759 120.274C391.538 119.645 391.026 119.069 390.287 118.638C389.373 118.137 388.989 118.085 388.127 118.382C387.486 118.633 381.169 123.876 372.273 131.601ZM345.281 155.025C343.61 156.417 328.821 169.251 312.391 183.488C295.96 197.726 282.249 209.47 281.905 209.569C281.451 209.691 279.699 209.092 275.245 207.311L269.22 204.901L262.116 222.666L275.738 227.945C279.359 227.67 280.942 227.256 282.107 226.709C283.772 225.922 288.185 221.809 320.261 191.162C340.202 172.113 356.621 156.385 356.749 156.233C356.953 155.977 355.998 155.494 352.68 154.167L348.314 152.421L345.281 155.025ZM239.181 193.901C238.413 194.247 237.891 194.737 237.615 195.369C237.353 195.94 237.201 199.19 237.218 203.622C237.206 208.718 237.386 211.222 237.747 212.008C238.248 213.12 238.294 213.173 242.02 214.663L245.804 216.176L252.908 198.412L240.363 193.394L239.181 193.901ZM248.726 217.311L259.205 221.502L266.309 203.737L255.831 199.547L248.726 217.311Z" fill="white" fill-opacity="0.28"/>
<path fill-rule="evenodd" clip-rule="evenodd" d="M1103.98 -29.8629C1102.84 -29.3728 1102.01 -28.7656 1101.65 -28.1873C1101.29 -27.6848 1100.83 -26.8372 1100.62 -26.3294C1100.39 -25.7766 1100.16 -24.6632 1100.14 -23.8305C1100.09 -22.6502 1100.32 -21.9302 1101 -20.6784C1101.8 -19.2867 1110.84 -11.3152 1161.32 32.3951C1193.96 60.7169 1221.43 84.4766 1222.38 85.2373C1223.3 85.9671 1224.95 86.9646 1226.04 87.3969C1227.11 87.8742 1228.78 88.3726 1229.79 88.5444C1230.79 88.7162 1232.63 88.7657 1236.22 88.4529L1275.72 70.2209L1276.54 68.9465C1276.97 68.2644 1277.49 67.2372 1277.67 66.6678C1277.86 66.0983 1277.79 61.7166 1277.55 56.9345C1277.2 50.4817 1276.92 47.9563 1276.44 46.9088C1276.08 46.1386 1275.37 45.1588 1274.84 44.7309C1274.32 44.3339 1273.43 43.7722 1272.9 43.5714C1272.38 43.3258 1271.42 43.095 1270.77 43.0571C1269.74 42.9751 1267.38 43.9527 1227.07 62.2171L1168.92 16.5543C1136.94 -8.56161 1110.29 -29.3374 1109.73 -29.6755C1109.15 -29.9687 1108.03 -30.3112 1107.24 -30.4302C1106.11 -30.6213 1105.32 -30.4824 1104.01 -29.877L1103.98 -29.8629ZM1125.15 -13.5083C1134.27 -6.32188 1143.43 0.850459 1145.46 2.45272L1149.15 5.3104L1139.87 9.40815C1110.28 -16.2901 1104.02 -21.9208 1103.71 -22.5986C1103.44 -23.184 1103.39 -24.0193 1103.58 -24.7094C1103.78 -25.3994 1104.3 -26.0481 1105.07 -26.5514C1106.02 -27.1393 1106.42 -27.2158 1107.37 -26.9401C1108.07 -26.7033 1115.15 -21.377 1125.15 -13.5083ZM1155.47 10.3522C1157.35 11.767 1173.96 24.8395 1192.42 39.3409C1210.88 53.8423 1226.28 65.7959 1226.65 65.8849C1227.15 65.9932 1228.99 65.255 1233.66 63.1009L1239.97 60.1866L1248.65 78.9802L1234.36 85.3869C1230.46 85.2798 1228.74 84.916 1227.46 84.386C1225.63 83.6243 1220.65 79.418 1184.45 48.0309C1161.94 28.5223 1143.4 12.4119 1143.25 12.2552C1143.02 11.9894 1144.01 11.4183 1147.49 9.81327L1152.07 7.70145L1155.47 10.3522ZM1271.52 46.7505C1272.36 47.0834 1272.95 47.584 1273.28 48.2524C1273.6 48.8545 1273.95 52.3525 1274.2 57.1347C1274.52 62.6316 1274.47 65.3426 1274.13 66.2095C1273.66 67.4356 1273.61 67.4946 1269.71 69.2966L1265.74 71.1269L1257.07 52.3333L1270.22 46.2653L1271.52 46.7505ZM1262.68 72.504L1251.7 77.5723L1243.02 58.7788L1254.01 53.7104L1262.68 72.504Z" fill="white" fill-opacity="0.28"/>
</g>
<defs>
<clipPath id="clip0_0_1">
<rect width="1440" height="1620" fill="white" transform="translate(0 -1259)"/>
</clipPath>
</defs>
</svg>
